<svg xmlns="http://www.w3.org/2000/svg" viewBox="0 0 1200 520" role="img" aria-labelledby="title desc">
  <title id="title">SynQc TDS Animated Process Flow</title>
  <desc id="desc">Animated overview showing UI to API to queue to providers and back to the UI store.</desc>
  <defs>
    <linearGradient id="bg" x1="0%" x2="100%" y1="0%" y2="100%">
      <stop offset="0%" stop-color="#0d1024" />
      <stop offset="50%" stop-color="#060714" />
      <stop offset="100%" stop-color="#030308" />
    </linearGradient>
    <linearGradient id="accent" x1="0%" x2="100%" y1="50%" y2="50%">
      <stop offset="0%" stop-color="#6ae5ff" />
      <stop offset="50%" stop-color="#20e3b2" />
      <stop offset="100%" stop-color="#ffdd6e" />
    </linearGradient>
    <linearGradient id="accent-soft" x1="0%" x2="100%" y1="0%" y2="0%">
      <stop offset="0%" stop-color="#122042" />
      <stop offset="100%" stop-color="#0f162f" />
    </linearGradient>
    <filter id="glow" x="-30%" y="-30%" width="160%" height="160%">
      <feGaussianBlur stdDeviation="9" result="blur" />
      <feColorMatrix in="blur" type="matrix"
        values="0 0 0 0 0.5  0 0 0 0 0.87  0 0 0 0 1  0 0 0 0.26 0" result="glow" />
      <feMerge>
        <feMergeNode in="glow" />
        <feMergeNode in="SourceGraphic" />
      </feMerge>
    </filter>
    <style>
      @keyframes pulse { 0%,100% { opacity: 0.45; transform: translateY(0); } 50% { opacity: 1; transform: translateY(-4px); }}
      @keyframes dash { to { stroke-dashoffset: -120; }}
      @keyframes float { 0% { transform: translateY(0); } 50% { transform: translateY(-6px); } 100% { transform: translateY(0); }}
      @keyframes orbit { from { transform: rotate(0deg); } to { transform: rotate(360deg); }}
      @keyframes twinkle { 0%, 100% { opacity: 0.5; } 50% { opacity: 1; }}
      @keyframes shimmer { from { stop-color: #6ae5ff; } to { stop-color: #ffdd6e; }}
      .panel { fill: url(#accent-soft); stroke: #1d2545; stroke-width: 2; rx: 16; filter: drop-shadow(0 6px 18px rgba(0,0,0,0.35)); }
      .panel-title { font: 700 18px "Segoe UI", system-ui; fill: #f6f7ff; letter-spacing: 0.03em; }
      .panel-sub { font: 400 14px "Segoe UI", system-ui; fill: #9fb2d8; }
      .accent-line { stroke: url(#accent); stroke-width: 3.5; stroke-linecap: round; stroke-dasharray: 14 12; animation: dash 2.8s linear infinite; }
      .node { fill: url(#accent); filter: url(#glow); }
      .node-ring { fill: none; stroke: url(#accent); stroke-width: 3; opacity: 0.7; animation: float 3.5s ease-in-out infinite; }
      .spark { fill: #ffdd6e; opacity: 0.8; animation: pulse 1.8s ease-in-out infinite; }
      .atom { fill: none; stroke: url(#accent); stroke-width: 1.5; opacity: 0.65; }
      .atom-center { fill: #8cf3d4; opacity: 0.8; }
      .particle { fill: #c8e9ff; opacity: 0.5; animation: twinkle 3.5s ease-in-out infinite; }
      .timeline { stroke: #27314f; stroke-width: 2; stroke-linecap: round; }
      .timeline-dot { fill: url(#accent); animation: pulse 2.3s ease-in-out infinite; }
      .caption { font: 600 12px "Segoe UI", system-ui; fill: #cdd7ff; letter-spacing: 0.05em; }
      .kpi { font: 700 32px "Segoe UI", system-ui; fill: #6ae5ff; }
      .kpi-label { font: 600 13px "Segoe UI", system-ui; fill: #a6acd3; }
      .badge { font: 700 12px "Segoe UI", system-ui; fill: #05060e; }
    </style>
  </defs>

  <rect width="1200" height="520" fill="url(#bg)" />
  <rect x="18" y="18" width="1164" height="484" rx="26" stroke="#1e233b" fill="none" opacity="0.6" />

  <g opacity="0.8">
    <g transform="translate(200 90)">
      <circle cx="0" cy="0" r="20" class="atom" />
      <g transform="rotate(30)" style="animation: orbit 9s linear infinite; transform-origin: 0px 0px;">
        <ellipse rx="28" ry="12" class="atom" />
      </g>
      <circle cx="0" cy="0" r="4" class="atom-center" />
    </g>
    <g transform="translate(780 70)">
      <circle cx="0" cy="0" r="16" class="atom" />
      <g style="animation: orbit 11s linear infinite; transform-origin: 0px 0px;">
        <ellipse rx="24" ry="10" class="atom" />
      </g>
      <circle cx="0" cy="0" r="3" class="atom-center" />
    </g>
    <g transform="translate(1040 260)">
      <circle cx="0" cy="0" r="18" class="atom" />
      <g style="animation: orbit 10s linear infinite reverse; transform-origin: 0px 0px;">
        <ellipse rx="26" ry="11" class="atom" />
      </g>
      <circle cx="0" cy="0" r="3" class="atom-center" />
    </g>
    <g>
      <circle cx="160" cy="280" r="2.5" class="particle" style="animation-delay:0.5s" />
      <circle cx="520" cy="70" r="2" class="particle" style="animation-delay:1.1s" />
      <circle cx="880" cy="240" r="1.8" class="particle" style="animation-delay:1.8s" />
      <circle cx="1030" cy="120" r="2.3" class="particle" style="animation-delay:2.5s" />
      <circle cx="360" cy="420" r="2" class="particle" style="animation-delay:0.9s" />
      <circle cx="700" cy="440" r="2.2" class="particle" style="animation-delay:1.6s" />
      <circle cx="940" cy="360" r="2" class="particle" style="animation-delay:2.2s" />
    </g>
  </g>

  <rect x="60" y="62" width="280" height="180" class="panel" />
  <text x="80" y="96" class="panel-title">UI Console</text>
  <text x="80" y="122" class="panel-sub">Preset runs, KPI tiles, chat-safe logs</text>
  <circle cx="88" cy="152" r="6" class="spark" />
  <circle cx="116" cy="152" r="6" class="spark" style="animation-delay:0.4s" />
  <circle cx="144" cy="152" r="6" class="spark" style="animation-delay:0.8s" />
  <text x="80" y="186" class="kpi">99.4%</text>
  <text x="80" y="210" class="kpi-label">Fidelity (sim)</text>

  <rect x="470" y="62" width="280" height="180" class="panel" />
  <text x="490" y="96" class="panel-title">SynQc API</text>
  <text x="490" y="122" class="panel-sub">Validates guardrails, routes jobs</text>
  <circle cx="510" cy="166" r="16" class="node" />
  <circle cx="510" cy="166" r="26" class="node-ring" style="animation-delay:0.6s" />
  <circle cx="510" cy="166" r="38" class="node-ring" style="animation-delay:1.2s" />
  <text x="540" y="174" class="badge" fill="#05060e">API OK</text>

  <rect x="880" y="62" width="260" height="180" class="panel" />
  <text x="900" y="96" class="panel-title">Providers</text>
  <text x="900" y="122" class="panel-sub">Simulator + hardware roster</text>
  <circle cx="930" cy="170" r="16" class="node" />
  <circle cx="990" cy="170" r="16" class="node" style="animation-delay:0.4s" />
  <circle cx="1050" cy="170" r="16" class="node" style="animation-delay:0.8s" />
  <text x="920" y="206" class="panel-sub">IBM | Braket | IonQ | Rigetti</text>

  <rect x="230" y="300" width="320" height="150" class="panel" />
  <text x="250" y="334" class="panel-title">Redis Queue</text>
  <text x="250" y="360" class="panel-sub">Async worker keeps UI responsive</text>
  <line x1="260" y1="390" x2="520" y2="390" class="timeline" />
  <circle cx="300" cy="390" r="7" class="timeline-dot" />
  <circle cx="420" cy="390" r="7" class="timeline-dot" style="animation-delay:0.7s" />

  <rect x="640" y="300" width="320" height="150" class="panel" />
  <text x="660" y="334" class="panel-title">Results Store</text>
  <text x="660" y="360" class="panel-sub">KPIs, history, experiment details</text>
  <text x="660" y="402" class="kpi">latency 42 ms</text>
  <text x="660" y="432" class="kpi-label">normalized + cached</text>

  <path d="M340 140 C 400 120, 470 120, 510 140" class="accent-line" />
  <path d="M750 140 C 820 120, 900 120, 940 140" class="accent-line" style="animation-delay:0.6s" />
  <path d="M380 220 C 420 250, 460 280, 390 320" class="accent-line" style="animation-delay:1.2s" />
  <path d="M540 320 C 620 280, 700 260, 760 220" class="accent-line" style="animation-delay:0.4s" />
  <path d="M820 320 C 900 280, 960 230, 1040 210" class="accent-line" style="animation-delay:1.4s" />
  <path d="M740 420 C 690 460, 540 460, 400 420" class="accent-line" style="animation-delay:0.9s" />

  <text x="344" y="130" class="caption">UI → API</text>
  <text x="804" y="130" class="caption">API → Providers</text>
  <text x="360" y="278" class="caption">Queue buffers work</text>
  <text x="672" y="278" class="caption">Worker writes results</text>
  <text x="896" y="298" class="caption">Provider returns payload</text>
  <text x="504" y="456" class="caption">Store hydrates UI tables</text>
</svg>
